<svg width="39" height="33" viewBox="0 0 39 33" fill="none" xmlns="http://www.w3.org/2000/svg">
<path d="M3.78642 25.5693C3.73252 25.5693 3.67914 25.58 3.62935 25.6006C3.57955 25.6212 3.5343 25.6514 3.49619 25.6895C3.45808 25.7277 3.42785 25.7729 3.40722 25.8227C3.38659 25.8725 3.37598 25.9259 3.37598 25.9798V31.9158C3.37598 32.0247 3.41922 32.1291 3.49619 32.2061C3.57316 32.283 3.67756 32.3263 3.78642 32.3263C3.89527 32.3263 3.99967 32.283 4.07664 32.2061C4.15361 32.1291 4.19685 32.0247 4.19685 31.9158V25.9798C4.19685 25.8709 4.15361 25.7665 4.07664 25.6895C3.99967 25.6126 3.89527 25.5693 3.78642 25.5693Z" fill="#E541ED" stroke="#E541ED"/>
<path d="M37.59 1H1.81512C1.70626 1 1.60186 1.04324 1.52489 1.12021C1.44792 1.19719 1.40468 1.30158 1.40468 1.41044V23.554C0.826211 24.548 0.522101 25.6778 0.523442 26.8278V31.9165C0.523442 32.0253 0.566684 32.1297 0.643657 32.2067C0.720629 32.2837 0.825025 32.3269 0.93388 32.3269C1.04274 32.3269 1.14713 32.2837 1.2241 32.2067C1.30108 32.1297 1.34432 32.0253 1.34432 31.9165V26.8278C1.3456 25.3128 1.94801 23.8602 3.01931 22.7889C4.0906 21.7176 5.54322 21.1152 7.05826 21.1139H8.35155C11.6994 21.1139 12.6539 21.4463 14.5556 22.1086L17.0086 22.9609C17.0845 22.9874 17.1666 22.991 17.2446 22.9712C17.3225 22.9515 17.393 22.9093 17.4472 22.8498L22.1592 17.6759C22.3382 17.4843 22.5774 17.3597 22.837 17.323C23.0966 17.2862 23.3609 17.3395 23.5861 17.4739C23.7325 17.5574 23.8583 17.6726 23.9542 17.8112C24.0502 17.9498 24.1138 18.1081 24.1404 18.2745C24.1671 18.4409 24.156 18.6112 24.1082 18.7728C24.0603 18.9344 23.9767 19.0831 23.8637 19.2082L18.19 25.5346C18.0318 25.7129 17.8298 25.8468 17.6039 25.923C17.3781 25.9993 17.1362 26.0152 16.9023 25.9691L13.1947 24.7813C13.1332 24.7613 13.0678 24.7562 13.0039 24.7664C12.9401 24.7766 12.8795 24.8017 12.8272 24.8398C12.7749 24.8779 12.7324 24.9278 12.7031 24.9855C12.6738 25.0431 12.6586 25.1069 12.6587 25.1716V31.9165C12.6587 32.0253 12.702 32.1297 12.779 32.2067C12.8559 32.2837 12.9603 32.3269 13.0692 32.3269C13.178 32.3269 13.2824 32.2837 13.3594 32.2067C13.4364 32.1297 13.4796 32.0253 13.4796 31.9165V29.3589H37.59C37.6439 29.3589 37.6973 29.3483 37.7471 29.3276C37.7969 29.307 37.8422 29.2768 37.8803 29.2387C37.9184 29.2005 37.9486 29.1553 37.9692 29.1055C37.9899 29.0557 38.0005 29.0023 38.0005 28.9484V1.41044C38.0005 1.35654 37.9899 1.30317 37.9692 1.25337C37.9486 1.20357 37.9184 1.15833 37.8803 1.12021C37.8422 1.0821 37.7969 1.05187 37.7471 1.03124C37.6973 1.01062 37.6439 1 37.59 1ZM8.29038 20.2471C7.5582 20.2471 6.84246 20.03 6.23367 19.6232C5.62488 19.2165 5.15038 18.6383 4.87019 17.9618C4.58999 17.2854 4.51668 16.541 4.65952 15.8229C4.80237 15.1048 5.15495 14.4452 5.67268 13.9274C6.19041 13.4097 6.85005 13.0571 7.56816 12.9143C8.28628 12.7714 9.03063 12.8448 9.70708 13.125C10.3835 13.4052 10.9617 13.8796 11.3685 14.4884C11.7753 15.0972 11.9924 15.813 11.9924 16.5452C11.9924 17.0313 11.8966 17.5127 11.7106 17.9618C11.5245 18.411 11.2519 18.8191 10.9081 19.1629C10.5643 19.5066 10.1562 19.7793 9.70708 19.9653C9.25793 20.1514 8.77654 20.2471 8.29038 20.2471ZM37.182 28.5364H13.4844V25.7341L16.6939 26.761C17.074 26.844 17.4692 26.8249 17.8395 26.7058C18.2099 26.5866 18.5421 26.3716 18.8024 26.0826L24.4761 19.7562C24.6723 19.5378 24.8167 19.278 24.8985 18.9962C24.9804 18.7143 24.9976 18.4176 24.949 18.1281C24.9003 17.8386 24.7871 17.5638 24.6175 17.3242C24.448 17.0845 24.2267 16.8862 23.9699 16.7439C23.5842 16.5245 23.1355 16.4423 22.697 16.5107C22.2585 16.5791 21.8562 16.7941 21.5556 17.1206L17.0215 22.0949L14.826 21.3328C13.416 20.8419 12.4688 20.5119 10.6959 20.3711C11.5278 19.8487 12.1669 19.0694 12.5165 18.1514C12.8661 17.2333 12.907 16.2263 12.6332 15.2829C12.3594 14.3394 11.7857 13.5108 10.999 12.9226C10.2122 12.3343 9.25524 12.0183 8.27287 12.0224C7.29051 12.0266 6.33622 12.3506 5.55446 12.9455C4.77269 13.5404 4.206 14.3738 3.94014 15.3195C3.67429 16.2652 3.72375 17.2718 4.08103 18.1869C4.43832 19.102 5.08398 19.8758 5.9203 20.3912C4.49651 20.6441 3.19697 21.3625 2.22555 22.4337V1.82088H37.1796L37.182 28.5364Z" fill="#5956E9" stroke="#5956E9"/>
<path d="M14.5384 6.11385H32.5309C32.6397 6.11385 32.7441 6.0706 32.8211 5.99363C32.8981 5.91666 32.9413 5.81226 32.9413 5.70341C32.9413 5.59455 32.8981 5.49016 32.8211 5.41318C32.7441 5.33621 32.6397 5.29297 32.5309 5.29297H14.5384C14.4295 5.29297 14.3251 5.33621 14.2481 5.41318C14.1712 5.49016 14.1279 5.59455 14.1279 5.70341C14.1279 5.81226 14.1712 5.91666 14.2481 5.99363C14.3251 6.0706 14.4295 6.11385 14.5384 6.11385Z" fill="#E541ED" stroke="#E541ED"/>
<path d="M32.531 9.38672H29.1018C29.0479 9.38672 28.9946 9.39734 28.9448 9.41796C28.895 9.43859 28.8497 9.46882 28.8116 9.50693C28.7735 9.54505 28.7433 9.59029 28.7226 9.64009C28.702 9.68989 28.6914 9.74326 28.6914 9.79716C28.6914 9.85106 28.702 9.90443 28.7226 9.95422C28.7433 10.004 28.7735 10.0493 28.8116 10.0874C28.8497 10.1255 28.895 10.1557 28.9448 10.1764C28.9946 10.197 29.0479 10.2076 29.1018 10.2076H32.531C32.5849 10.2076 32.6383 10.197 32.6881 10.1764C32.7379 10.1557 32.7831 10.1255 32.8212 10.0874C32.8594 10.0493 32.8896 10.004 32.9102 9.95422C32.9308 9.90443 32.9415 9.85106 32.9415 9.79716C32.9415 9.74326 32.9308 9.68989 32.9102 9.64009C32.8896 9.59029 32.8594 9.54505 32.8212 9.50693C32.7831 9.46882 32.7379 9.43859 32.6881 9.41796C32.6383 9.39734 32.5849 9.38672 32.531 9.38672Z" fill="#E541ED" stroke="#E541ED"/>
<path d="M14.5384 10.2076H24.9619C25.0158 10.2076 25.0692 10.197 25.119 10.1764C25.1688 10.1557 25.214 10.1255 25.2521 10.0874C25.2902 10.0493 25.3205 10.004 25.3411 9.95422C25.3617 9.90443 25.3723 9.85106 25.3723 9.79716C25.3723 9.74326 25.3617 9.68989 25.3411 9.64009C25.3205 9.59029 25.2902 9.54505 25.2521 9.50693C25.214 9.46882 25.1688 9.43859 25.119 9.41796C25.0692 9.39734 25.0158 9.38672 24.9619 9.38672H14.5384C14.4295 9.38672 14.3251 9.42996 14.2481 9.50693C14.1712 9.58391 14.1279 9.6883 14.1279 9.79716C14.1279 9.90601 14.1712 10.0104 14.2481 10.0874C14.3251 10.1644 14.4295 10.2076 14.5384 10.2076Z" fill="#E541ED" stroke="#E541ED"/>
<path d="M32.5315 13.48H25.8059C25.6971 13.48 25.5927 13.5232 25.5157 13.6002C25.4388 13.6772 25.3955 13.7816 25.3955 13.8904C25.3955 13.9993 25.4388 14.1037 25.5157 14.1806C25.5927 14.2576 25.6971 14.3009 25.8059 14.3009H32.5315C32.6404 14.3009 32.7448 14.2576 32.8217 14.1806C32.8987 14.1037 32.9419 13.9993 32.9419 13.8904C32.9419 13.7816 32.8987 13.6772 32.8217 13.6002C32.7448 13.5232 32.6404 13.48 32.5315 13.48Z" fill="#E541ED" stroke="#E541ED"/>
<path d="M14.5384 14.3009H18.0641C18.173 14.3009 18.2774 14.2576 18.3543 14.1806C18.4313 14.1037 18.4746 13.9993 18.4746 13.8904C18.4746 13.7816 18.4313 13.6772 18.3543 13.6002C18.2774 13.5232 18.173 13.48 18.0641 13.48H14.5384C14.4295 13.48 14.3251 13.5232 14.2481 13.6002C14.1712 13.6772 14.1279 13.7816 14.1279 13.8904C14.1279 13.9993 14.1712 14.1037 14.2481 14.1806C14.3251 14.2576 14.4295 14.3009 14.5384 14.3009Z" fill="#E541ED" stroke="#E541ED"/>
</svg>
