<svg width="44" height="42" viewBox="0 0 44 42" fill="none" xmlns="http://www.w3.org/2000/svg">
<path d="M15.9179 31.2737C15.4552 31.7364 14.9924 32.3534 14.684 32.9703C12.8331 31.4279 10.9822 29.7313 9.43974 27.7261C10.0567 27.4176 10.6737 26.9549 11.1364 26.4922C13.2958 24.3328 12.5246 21.5564 10.3652 19.397C8.20581 17.2377 5.42945 16.4665 3.27007 18.6258C1.11068 20.7852 0.802198 24.7955 2.49886 27.2634C5.5837 32.0449 10.3652 36.6721 15.1467 39.9112C17.7688 41.6079 21.6249 41.2994 23.7842 39.14C25.9436 36.9806 25.1724 34.2043 23.013 32.0449C20.8536 29.8855 18.2315 29.1143 15.9179 31.2737Z" stroke="#6361EB" stroke-width="2" stroke-miterlimit="10" stroke-linejoin="round"/>
<path d="M31.847 36.3214C38.1709 33.3908 42.6439 26.9126 42.6439 19.509C42.6439 9.32906 34.3149 1 24.1349 1C17.3483 1 11.3328 4.7018 8.09375 10.2545" stroke="#E541ED" stroke-width="2" stroke-miterlimit="10" stroke-linejoin="round"/>
<path d="M17.9658 14.7275L18.5828 14.1106C19.6625 13.0309 21.3591 13.0309 22.4388 14.1106C23.5185 15.1902 23.5185 16.8869 22.4388 17.9666L17.9658 22.5939H24.1355" stroke="#5956E9" stroke-width="2" stroke-miterlimit="10" stroke-linejoin="round"/>
<path d="M31.847 19.509H27.2197L33.3894 13.3394V24.1363" stroke="#5956E9" stroke-width="2" stroke-miterlimit="10" stroke-linejoin="round"/>
</svg>
