<svg width="35" height="47" viewBox="0 0 35 47" fill="none" xmlns="http://www.w3.org/2000/svg">
<path d="M9.61591 41.1537C10.0407 41.1537 10.3851 40.8093 10.3851 40.3845C10.3851 39.9596 10.0407 39.6152 9.61591 39.6152C9.19108 39.6152 8.84668 39.9596 8.84668 40.3845C8.84668 40.8093 9.19108 41.1537 9.61591 41.1537Z" fill="#E9DFFC"/>
<path d="M15.7693 16.9234C16.3779 16.9234 16.9728 16.7429 17.4788 16.4048C17.9847 16.0667 18.3791 15.5862 18.612 15.0239C18.8449 14.4617 18.9058 13.843 18.7871 13.2462C18.6684 12.6493 18.3753 12.1011 17.945 11.6707C17.5147 11.2404 16.9664 10.9474 16.3696 10.8287C15.7727 10.7099 15.1541 10.7709 14.5918 11.0037C14.0296 11.2366 13.549 11.631 13.2109 12.137C12.8728 12.643 12.6924 13.2379 12.6924 13.8465C12.6924 14.6625 13.0166 15.4451 13.5936 16.0222C14.1706 16.5992 14.9533 16.9234 15.7693 16.9234ZM15.7693 12.308C16.0736 12.308 16.371 12.3982 16.624 12.5673C16.877 12.7363 17.0742 12.9766 17.1907 13.2577C17.3071 13.5388 17.3376 13.8482 17.2782 14.1466C17.2188 14.445 17.0723 14.7192 16.8572 14.9343C16.642 15.1495 16.3679 15.296 16.0694 15.3554C15.771 15.4147 15.4617 15.3843 15.1806 15.2678C14.8994 15.1514 14.6592 14.9542 14.4901 14.7012C14.3211 14.4482 14.2308 14.1507 14.2308 13.8465C14.2308 13.4384 14.3929 13.0471 14.6814 12.7586C14.97 12.4701 15.3613 12.308 15.7693 12.308Z" fill="#DA21E5"/>
<path d="M24.9998 19.9995C24.3912 19.9995 23.7963 20.18 23.2903 20.5181C22.7843 20.8562 22.39 21.3367 22.1571 21.8989C21.9242 22.4612 21.8633 23.0798 21.982 23.6767C22.1007 24.2736 22.3937 24.8218 22.8241 25.2521C23.2544 25.6825 23.8026 25.9755 24.3995 26.0942C24.9964 26.213 25.615 26.152 26.1773 25.9191C26.7395 25.6863 27.22 25.2919 27.5581 24.7859C27.8962 24.2799 28.0767 23.685 28.0767 23.0764C28.0767 22.2604 27.7525 21.4778 27.1755 20.9007C26.5985 20.3237 25.8158 19.9995 24.9998 19.9995ZM24.9998 24.6149C24.6955 24.6149 24.3981 24.5247 24.1451 24.3556C23.8921 24.1866 23.6949 23.9463 23.5784 23.6652C23.462 23.3841 23.4315 23.0747 23.4909 22.7763C23.5502 22.4779 23.6968 22.2037 23.9119 21.9886C24.1271 21.7734 24.4012 21.6269 24.6996 21.5675C24.9981 21.5082 25.3074 21.5386 25.5885 21.6551C25.8696 21.7715 26.1099 21.9687 26.279 22.2217C26.448 22.4747 26.5382 22.7722 26.5382 23.0764C26.5382 23.4845 26.3762 23.8758 26.0876 24.1643C25.7991 24.4528 25.4078 24.6149 24.9998 24.6149Z" fill="#DA21E5"/>
<path d="M13.3701 23.0773C13.3695 23.5515 13.5099 24.0152 13.7734 24.4095C14.0369 24.8038 14.4117 25.1109 14.85 25.2917C15.2884 25.4726 15.7707 25.5191 16.2356 25.4253C16.7004 25.3315 17.1269 25.1017 17.4609 24.765L26.6309 15.4788C27.0589 15.0435 27.2988 14.4574 27.2988 13.8469C27.2988 13.2364 27.0589 12.6503 26.6309 12.215C26.1902 11.7988 25.607 11.5669 25.0009 11.5669C24.3947 11.5669 23.8116 11.7988 23.3709 12.215L14.0809 21.385C13.8563 21.606 13.6778 21.8694 13.5558 22.1599C13.4338 22.4504 13.3707 22.7622 13.3701 23.0773ZM15.1617 22.4773L24.4563 13.3019C24.5266 13.225 24.6118 13.1632 24.7067 13.1203C24.8017 13.0774 24.9043 13.0541 25.0085 13.0521C25.1127 13.05 25.2162 13.0691 25.3127 13.1082C25.4093 13.1474 25.4969 13.2057 25.5702 13.2797C25.6436 13.3537 25.7011 13.4419 25.7394 13.5388C25.7776 13.6357 25.7958 13.7394 25.7927 13.8435C25.7897 13.9477 25.7655 14.0501 25.7217 14.1447C25.6779 14.2392 25.6153 14.3238 25.5378 14.3934L16.3686 23.6834C16.2894 23.7627 16.1954 23.8256 16.0919 23.8685C15.9884 23.9114 15.8774 23.9335 15.7654 23.9335C15.6534 23.9336 15.5424 23.9115 15.4389 23.8687C15.3354 23.8258 15.2413 23.763 15.162 23.6838C15.0828 23.6046 15.0199 23.5106 14.977 23.4071C14.9341 23.3036 14.912 23.1927 14.912 23.0806C14.9119 22.9686 14.934 22.8577 14.9768 22.7541C15.0196 22.6506 15.0825 22.5565 15.1617 22.4773Z" fill="#E541ED"/>
<path d="M34.2877 36.1669C34.4827 36.1491 34.6639 36.0589 34.7957 35.9141C34.9276 35.7693 35.0004 35.5804 35 35.3846V3.84615C34.9988 2.82647 34.5932 1.84889 33.8721 1.12786C33.1511 0.406832 32.1735 0.00122143 31.1538 0H5.76923C4.23964 0.00162896 2.77316 0.60998 1.69157 1.69157C0.60998 2.77316 0.00162896 4.23964 0 5.76923V40.3846C0.00162896 41.9142 0.60998 43.3807 1.69157 44.4623C2.77316 45.5439 4.23964 46.1522 5.76923 46.1538H34.2308C34.4364 46.1504 34.6324 46.0662 34.7763 45.9193C34.9203 45.7725 35.0006 45.5749 35 45.3692C35.0005 45.1747 34.9273 44.9872 34.7952 44.8445C34.663 44.7017 34.4817 44.6144 34.2877 44.6C33.2265 44.5164 32.2357 44.0357 31.5132 43.254C30.7906 42.4722 30.3893 41.4468 30.3893 40.3823C30.3893 39.3178 30.7906 38.2924 31.5132 37.5106C32.2357 36.7289 33.2265 36.2482 34.2877 36.1646V36.1669ZM6.53846 1.53846H31.1538C31.7659 1.53846 32.3529 1.78159 32.7856 2.21437C33.2184 2.64715 33.4615 3.23412 33.4615 3.84615V34.6154H6.53846V1.53846ZM1.53846 5.76923C1.53983 4.78091 1.88654 3.82414 2.51862 3.06438C3.15071 2.30461 4.02843 1.78962 5 1.60846V34.6731C3.67137 34.8521 2.44699 35.4895 1.53846 36.4754V5.76923ZM28.9046 39.6154H12.6923C12.4883 39.6154 12.2926 39.6964 12.1484 39.8407C12.0041 39.9849 11.9231 40.1806 11.9231 40.3846C11.9231 40.5886 12.0041 40.7843 12.1484 40.9285C12.2926 41.0728 12.4883 41.1538 12.6923 41.1538H28.9046C29.0847 42.4809 29.7198 43.7044 30.7015 44.6154H5.76923C4.64716 44.6154 3.57105 44.1696 2.77762 43.3762C1.9842 42.5828 1.53846 41.5067 1.53846 40.3846C1.53846 39.2625 1.9842 38.1864 2.77762 37.393C3.57105 36.5996 4.64716 36.1538 5.76923 36.1538H30.7015C29.7198 37.0648 29.0847 38.2883 28.9046 39.6154Z" fill="#5956E9"/>
</svg>
