<svg width="44" height="37" viewBox="0 0 44 37" fill="none" xmlns="http://www.w3.org/2000/svg">
<path d="M4.30341 29.4551C4.80569 29.4551 5.20034 29.0604 5.20034 28.5581V19.1762L10.6178 16.2702V23.9658C10.6178 24.4681 11.0125 24.8628 11.5147 24.8628C12.017 24.8628 12.4117 24.4681 12.4117 23.9658V13.2744L3.42442 18.0999V28.5581C3.40648 29.0425 3.80113 29.4551 4.30341 29.4551Z" fill="#5956E9"/>
<path d="M15.103 22.6565C15.6053 22.6565 15.9999 22.2618 15.9999 21.7596V5.90181L21.4174 2.99575V28.7915C21.4174 29.2938 21.812 29.6884 22.3143 29.6884C22.8166 29.6884 23.2112 29.2938 23.2112 28.7915V0L14.2061 4.82549V21.7596C14.2061 22.2439 14.6007 22.6565 15.103 22.6565Z" fill="#E541ED"/>
<path d="M25.902 28.5227C26.4043 28.5227 26.799 28.128 26.799 27.6257V10.5302L32.2164 7.62417V23.1052C32.2164 23.6075 32.6111 24.0021 33.1133 24.0021C33.6156 24.0021 34.0103 23.6075 34.0103 23.1052V4.62842L25.023 9.45391V27.6257C25.0051 28.128 25.4177 28.5227 25.902 28.5227Z" fill="#5956E9"/>
<path d="M43.8766 21.4367C43.7151 21.1677 43.4281 20.9883 43.1052 20.9883H36.9164C36.5935 20.9883 36.3065 21.1677 36.145 21.4367C35.9836 21.7058 35.9836 22.0467 36.145 22.3337L37.2572 24.2531L32.3241 27.2489C31.5707 27.7153 30.8352 28.1637 30.0818 28.6301C29.5436 28.971 29.0054 29.2939 28.4852 29.6347C27.086 30.5316 25.8483 31.3389 24.7002 32.1282C24.1082 32.5228 23.5342 32.9354 22.9422 33.3301L14.9057 25.4729L0.41127 34.6934C-0.00131878 34.9625 -0.126889 35.5186 0.14219 35.9312C0.321577 36.2002 0.608595 36.3438 0.895613 36.3438C1.05706 36.3438 1.21851 36.2899 1.37996 36.2002L14.6545 27.7511L22.7628 35.6621L23.8571 34.8728C24.467 34.4423 25.0769 34.0117 25.7047 33.5991C26.8349 32.8278 28.0547 32.0385 29.4539 31.1415C29.9741 30.8007 30.5123 30.4778 31.0325 30.137C31.768 29.6706 32.5214 29.2221 33.2569 28.7557L37.7954 25.9752L38.1542 25.76L39.2484 27.6615C39.4099 27.9305 39.6969 28.1099 40.0198 28.1099C40.3427 28.1099 40.6297 27.9305 40.7911 27.6615L43.8945 22.2978C44.038 22.0646 44.038 21.7238 43.8766 21.4367ZM40.0018 25.455L38.4591 22.7821H41.5446L40.0018 25.455Z" fill="#5956E9"/>
</svg>
